<?xml version="1.0" encoding="UTF-8"?>
<svg version="1.1" xmlns="http://www.w3.org/2000/svg" width="1024" height="1024">
<path d="M0 0 C337.92 0 675.84 0 1024 0 C1024 337.92 1024 675.84 1024 1024 C686.08 1024 348.16 1024 0 1024 C0 686.08 0 348.16 0 0 Z " fill="#EDEADD" transform="translate(0,0)"/>
<path d="M0 0 C2.53958915 2.21190023 4.92775167 4.50548497 7.29296875 6.90234375 C8.06382812 7.66289062 8.8346875 8.4234375 9.62890625 9.20703125 C22.41465652 22.51643 29.21482264 39.88283151 32.29296875 57.90234375 C32.57333984 59.32933594 32.57333984 59.32933594 32.859375 60.78515625 C33.60903889 67.75038783 31.42894623 71.89241204 27.6328125 77.43359375 C27.14633743 78.16394836 26.65986237 78.89430298 26.15864563 79.64678955 C25.10064453 81.2347936 24.03818235 82.81983247 22.97180176 84.40222168 C20.67086852 87.82877688 18.4106192 91.28144616 16.14813232 94.73345947 C13.71954457 98.43680818 11.28061883 102.13330304 8.84204102 105.83007812 C6.99204769 108.63478931 5.14340282 111.44038564 3.29492188 114.24609375 C-3.43153949 124.45082117 -10.18207697 134.63890138 -16.97651672 144.79852295 C-20.90439764 150.67678595 -24.80475824 156.57293486 -28.59403992 162.54180908 C-31.37266361 166.79088787 -31.37266361 166.79088787 -34.70703125 167.90234375 C-47.54612988 168.83785596 -60.80734789 169.30824772 -72.70703125 163.90234375 C-73.73699219 163.45503906 -74.76695312 163.00773438 -75.828125 162.546875 C-82.48252633 159.44813381 -88.20612811 155.7507675 -93.70703125 150.90234375 C-94.4340625 150.26941406 -95.16109375 149.63648438 -95.91015625 148.984375 C-106.94254326 138.70419619 -113.87244137 126.02063113 -118.70703125 111.90234375 C-119.02285156 110.98582031 -119.33867187 110.06929687 -119.6640625 109.125 C-123.14274515 98.27767921 -124.09785893 87.63370647 -124.08203125 76.27734375 C-124.08148743 75.61693085 -124.0809436 74.95651794 -124.0803833 74.27609253 C-124.0399199 63.57060862 -123.1634807 54.02403374 -119.70703125 43.90234375 C-119.39354736 42.95198242 -119.39354736 42.95198242 -119.07373047 41.98242188 C-112.04210335 21.06135603 -98.10323633 3.19092331 -78.33178711 -7.06152344 C-53.46230753 -19.14810995 -22.05158981 -17.08759557 0 0 Z " fill="#EDE9DD" transform="translate(494.70703125,440.09765625)"/>
<path d="M0 0 C22.68900969 19.04542166 35.84188774 45.64728091 38.72265625 74.95605469 C38.96471802 76.57870239 38.96471802 76.57870239 39.21166992 78.23413086 C40.34688071 91.1281194 33.89102685 99.03398232 26.72265625 109.14355469 C25.58273601 110.80216622 24.44599252 112.46296571 23.3125 114.12597656 C21.1237637 117.32729769 18.91836297 120.51579842 16.69458008 123.69287109 C12.94550687 129.05410126 9.33145003 134.49952382 5.72265625 139.95605469 C4.39685878 141.94111495 3.07000484 143.92546996 1.7421875 145.90917969 C-6.7118828 158.55768073 -15.11602049 171.23781796 -23.46484375 183.95605469 C-23.9060556 184.62769653 -24.34726746 185.29933838 -24.80184937 185.99133301 C-25.66347739 187.30335064 -26.52455343 188.61573096 -27.38504028 189.92849731 C-28.2070895 191.18192786 -29.03076106 192.43429614 -29.85617065 193.68551636 C-31.71501788 196.51390603 -33.51212799 199.35053885 -35.24389648 202.26025391 C-35.83501221 203.25041504 -36.42612793 204.24057617 -37.03515625 205.26074219 C-37.53031738 206.1216748 -38.02547852 206.98260742 -38.53564453 207.86962891 C-42.02822093 212.05347498 -47.11642135 212.38546824 -52.27734375 212.95605469 C-53.18097656 213.08109375 -54.08460938 213.20613281 -55.015625 213.33496094 C-58.10888585 213.68060112 -61.16639168 213.84185956 -64.27734375 213.95605469 C-65.0048584 213.98328613 -65.73237305 214.01051758 -66.48193359 214.03857422 C-97.77313131 215.05043113 -125.29213613 205.63156965 -148.76171875 184.74511719 C-161.87540143 172.21928925 -171.36167715 156.55461501 -177.15234375 139.45605469 C-177.56347412 138.24864624 -177.56347412 138.24864624 -177.98291016 137.0168457 C-182.2297257 123.69776717 -183.78052142 110.68242759 -183.66845703 96.76489258 C-183.65232763 94.39118247 -183.66843838 92.01916802 -183.6875 89.64550781 C-183.70590249 76.84002801 -182.08045237 64.68392147 -177.65234375 52.58105469 C-177.27493042 51.53751831 -177.27493042 51.53751831 -176.88989258 50.47290039 C-166.37613618 22.54583284 -146.66103167 -0.08894955 -119.65234375 -12.91894531 C-81.42568983 -30.17259722 -33.16115984 -26.66899213 0 0 Z M-122.27734375 22.95605469 C-122.89609375 23.46136719 -123.51484375 23.96667969 -124.15234375 24.48730469 C-138.53769155 37.54067584 -145.15466262 56.56255428 -149.27734375 74.95605469 C-149.45313965 75.55579102 -149.62893555 76.15552734 -149.81005859 76.7734375 C-153.12636816 92.2634101 -151.07458298 112.05336668 -146.27734375 126.95605469 C-146.06835449 127.63764648 -145.85936523 128.31923828 -145.64404297 129.02148438 C-139.25760944 149.42936861 -125.80599598 167.72497971 -107.13671875 178.53808594 C-96.08707448 184.01762264 -85.9953489 186.13665186 -73.77734375 186.14355469 C-72.63652344 186.15580078 -71.49570312 186.16804687 -70.3203125 186.18066406 C-69.22332031 186.18259766 -68.12632812 186.18453125 -66.99609375 186.18652344 C-65.99513672 186.19063232 -64.99417969 186.19474121 -63.96289062 186.19897461 C-61.13683883 185.94334538 -59.61014785 185.55022606 -57.27734375 183.95605469 C-55.73756149 182.0977424 -55.73756149 182.0977424 -54.40625 179.80371094 C-53.84663574 178.90370361 -53.28702148 178.00369629 -52.71044922 177.07641602 C-52.09314941 176.06732178 -51.47584961 175.05822754 -50.83984375 174.01855469 C-49.42184604 171.74945091 -48.00010556 169.48331679 -46.5703125 167.22167969 C-46.17378479 166.59413284 -45.77725708 165.966586 -45.36871338 165.32002258 C-39.33627453 155.83371253 -32.96309721 146.57066653 -26.65234375 137.26855469 C-17.3722409 123.57558111 -8.13990171 109.87904801 0.54956055 95.80053711 C1.64838362 94.07283506 2.83533253 92.40207968 4.02734375 90.73730469 C8.04193236 84.15115932 5.95974385 76.28047275 4.28198242 69.140625 C-1.24716667 47.49293174 -11.63883688 26.8096933 -31.27905273 14.59985352 C-61.15275647 -2.80874384 -95.89917432 1.21188799 -122.27734375 22.95605469 Z " fill="#020202" transform="translate(521.27734375,422.0439453125)"/>
<path d="M0 0 C52.8 0 105.6 0 160 0 C160 13.69502457 160 13.69502457 155.3125 19.75 C154.19978548 21.30229911 153.09070783 22.85720869 151.984375 24.4140625 C151.35595703 25.28450195 150.72753906 26.15494141 150.08007812 27.05175781 C146.37765687 32.29946192 142.90198461 37.69672942 139.39724731 43.0776062 C137.13013432 46.5551731 134.85128852 50.02504207 132.57421875 53.49609375 C131.64236269 54.91777146 130.71055936 56.33948374 129.77880859 57.76123047 C127.06902986 61.89528739 124.35713619 66.02795337 121.64453125 70.16015625 C121.20816849 70.82488953 120.77180573 71.4896228 120.32221985 72.17449951 C119.44454235 73.5114969 118.5668619 74.84849235 117.68917847 76.18548584 C110.62076155 86.95348358 103.55765237 97.72494415 96.5 108.5 C89.87973995 118.60728044 83.25448473 128.71126767 76.625 138.8125 C76.19165344 139.47283234 75.75830688 140.13316467 75.31182861 140.81350708 C70.80865527 147.67542073 66.30466315 154.53679443 61.79812622 161.39649963 C59.93679341 164.22990575 58.07589086 167.06359432 56.21502686 169.89730835 C55.34451383 171.22266493 54.47379782 172.54788822 53.60284424 173.87295532 C47.02165477 183.88565602 40.5094728 193.93990567 34 204 C75.25 204 116.5 204 159 204 C159 213.24 159 222.48 159 232 C99.93 232 40.86 232 -20 232 C-18.4495294 228.12382351 -17.07621658 225.35612002 -14.82421875 221.94921875 C-14.17138916 220.95639893 -13.51855957 219.9635791 -12.84594727 218.94067383 C-12.13365967 217.86712646 -11.42137207 216.7935791 -10.6875 215.6875 C-9.93697466 214.54936491 -9.18690384 213.41092997 -8.43725586 212.2722168 C-6.82248995 209.82044124 -5.2054015 207.37021873 -3.58691406 204.92089844 C-0.89997827 200.85193427 1.77367061 196.77432952 4.4453125 192.6953125 C5.36807435 191.28685978 6.29084452 189.8784125 7.21362305 188.4699707 C7.66700043 187.77795563 8.12037781 187.08594055 8.5874939 186.37295532 C13.93988546 178.20383397 19.29693832 170.03864138 24.72265625 161.91796875 C31.36375146 151.97747487 37.92674393 141.98541796 44.5 132 C58.66384431 110.48373714 58.66384431 110.48373714 65.50447083 100.24530029 C69.04665122 94.9399336 72.55287009 89.61140824 76.04922485 84.27575684 C84.75921278 70.98502479 93.47913049 57.70085039 102.20703125 44.421875 C103.26355757 42.81429547 104.32007615 41.20671085 105.37658691 39.59912109 C107.91763602 35.73268917 110.45878774 31.8663247 113 28 C111.94257095 28.01189865 110.88514191 28.0237973 109.79566956 28.03605652 C99.80600535 28.1412459 89.81751915 28.1881694 79.82728672 28.17878246 C74.69152524 28.17580975 69.55751647 28.19300404 64.42211914 28.25708008 C59.46117108 28.31822434 54.50275552 28.3253569 49.54154778 28.29583168 C47.65375864 28.29393542 45.76584584 28.31115029 43.87841988 28.34822655 C28.27024895 28.63519959 28.27024895 28.63519959 23.85202026 24.49966431 C21.62518337 21.76521865 19.80755566 19.01931414 18 16 C17.34 15.67 16.68 15.34 16 15 C16 14.34 16 13.68 16 13 C15.46890625 12.77441406 14.9378125 12.54882812 14.390625 12.31640625 C11.19950812 10.55920627 8.51926786 8.27945261 5.75 5.9375 C5.19570313 5.47794922 4.64140625 5.01839844 4.0703125 4.54492188 C2.69175775 3.38876943 1.34298593 2.19728462 0 1 C0 0.67 0 0.34 0 0 Z " fill="#040404" transform="translate(526,402)"/>
<path d="M0 0 C5.14209244 1.89534978 8.96998612 5.10117678 11.375 10.05078125 C13.08916402 15.3968303 12.62371142 20.23726838 10.3125 25.3125 C7.91914337 29.55143797 4.95079724 31.82952166 0.8125 34.3125 C-4.22350099 35.54352246 -9.3866087 35.26046247 -14.09765625 32.98828125 C-18.3530955 30.12421704 -20.90581119 26.98415131 -22.6875 22.125 C-23.62096888 15.77741164 -23.02005461 12.04857437 -19.4375 6.796875 C-13.96374523 -0.04531846 -8.35144859 -0.98053445 0 0 Z " fill="#030303" transform="translate(428,346)"/>
<path d="M0 0 C3.7229703 2.6592645 6.55543557 5.73587115 8.625 9.875 C9.30743922 17.24758109 9.39168165 23.00831489 4.625 28.875 C-0.67240295 32.799894 -5.80180246 34.52154402 -12.375 33.875 C-17.40705538 31.61245271 -21.37600543 28.55343154 -24.375 23.875 C-25.95302717 18.64373185 -26.58247815 13.44798196 -24.2109375 8.39453125 C-18.21152528 -1.03531411 -10.81910896 -3.60636965 0 0 Z " fill="#000101" transform="translate(493.375,347.125)"/>
<path d="M0 0 C0.66 0 1.32 0 2 0 C2.51046875 1.17755859 2.51046875 1.17755859 3.03125 2.37890625 C8.05320028 13.26425062 13.78827324 18.82155554 25 23 C25 23.66 25 24.32 25 25 C24.21496094 25.3403125 23.42992187 25.680625 22.62109375 26.03125 C11.73574938 31.05320028 6.17844446 36.78827324 2 48 C1.34 48 0.68 48 0 48 C-0.20753906 47.443125 -0.41507813 46.88625 -0.62890625 46.3125 C-5.24105781 34.88825847 -11.80190768 29.85434544 -23 25 C-23 24.34 -23 23.68 -23 23 C-22.21496094 22.6596875 -21.42992187 22.319375 -20.62109375 21.96875 C-9.73574938 16.94679972 -4.17844446 11.21172676 0 0 Z " fill="#F5F4ED" transform="translate(967,944)"/>
<path d="M0 0 C4.69994029 1.71728588 7.20959499 3.86606666 10 8 C11.4180274 12.25408219 11.89758508 15.89144885 10.09375 20.12890625 C7.48452183 24.66996682 5.14353952 27.35406735 0 29 C-5.49680001 29.81434074 -8.8272583 28.5511992 -13.265625 25.48046875 C-16.40116874 22.80395732 -17.6693501 20.08853541 -18.30859375 16.05078125 C-18.63062462 10.92756293 -17.41937119 7.9592719 -14 4 C-9.44787756 0.06862153 -5.81719888 -0.95402062 0 0 Z " fill="#E5E1D5" transform="translate(655,672)"/>
<path d="M0 0 C4.69994029 1.71728588 7.20959499 3.86606666 10 8 C11.4180274 12.25408219 11.89758508 15.89144885 10.09375 20.12890625 C7.48452183 24.66996682 5.14353952 27.35406735 0 29 C-5.49680001 29.81434074 -8.8272583 28.5511992 -13.265625 25.48046875 C-16.40116874 22.80395732 -17.6693501 20.08853541 -18.30859375 16.05078125 C-18.63062462 10.92756293 -17.41937119 7.9592719 -14 4 C-9.44787756 0.06862153 -5.81719888 -0.95402062 0 0 Z " fill="#E5E1D5" transform="translate(622,672)"/>
<path d="M0 0 C4.69994029 1.71728588 7.20959499 3.86606666 10 8 C11.4180274 12.25408219 11.89758508 15.89144885 10.09375 20.12890625 C7.48452183 24.66996682 5.14353952 27.35406735 0 29 C-5.49680001 29.81434074 -8.8272583 28.5511992 -13.265625 25.48046875 C-16.40116874 22.80395732 -17.6693501 20.08853541 -18.30859375 16.05078125 C-18.63062462 10.92756293 -17.41937119 7.9592719 -14 4 C-9.44787756 0.06862153 -5.81719888 -0.95402062 0 0 Z " fill="#E5E1D5" transform="translate(511,672)"/>
<path d="M0 0 C4.69994029 1.71728588 7.20959499 3.86606666 10 8 C11.4180274 12.25408219 11.89758508 15.89144885 10.09375 20.12890625 C7.48452183 24.66996682 5.14353952 27.35406735 0 29 C-5.49680001 29.81434074 -8.8272583 28.5511992 -13.265625 25.48046875 C-16.40116874 22.80395732 -17.6693501 20.08853541 -18.30859375 16.05078125 C-18.63062462 10.92756293 -17.41937119 7.9592719 -14 4 C-9.44787756 0.06862153 -5.81719888 -0.95402062 0 0 Z " fill="#E5E1D5" transform="translate(408,672)"/>
<path d="M0 0 C15.1 0 15.1 0 19 3 C22.34852927 6.78912523 23.68376266 9.84317391 23.37890625 14.9765625 C22.70889753 18.55454722 21.41665393 21.2731487 19 24 C12.50153963 28.19692233 8.47755573 27 0 27 C0 18.09 0 9.18 0 0 Z " fill="#E0DCD1" transform="translate(577,673)"/>
<path d="M0 0 C1.875 1.125 1.875 1.125 3 3 C3.4375 5.9375 3.4375 5.9375 3 9 C1 11.375 1 11.375 -1 13 C-0.34 14.32 0.32 15.64 1 17 C2.32 17 3.64 17 5 17 C5.66 15.68 6.32 14.36 7 13 C7.99 13 8.98 13 10 13 C9.690625 13.721875 9.38125 14.44375 9.0625 15.1875 C7.5861084 18.99935169 7.5861084 18.99935169 7 23 C8.8312811 25.81099414 8.8312811 25.81099414 11 28 C8.23723823 27.47731534 5.6739124 26.89130413 3 26 C2.01 26.66 1.02 27.32 0 28 C-3.06720936 28.53662042 -5.931491 28.53076912 -9 28 C-11.625 25.9375 -11.625 25.9375 -13 23 C-13 18.82044153 -12.65361118 16.77244958 -9.9375 13.5625 C-8.9784375 12.7890625 -8.9784375 12.7890625 -8 12 C-8.66 11.01 -9.32 10.02 -10 9 C-10.375 6 -10.375 6 -10 3 C-7.09589708 -0.35088799 -4.27607914 -0.54588244 0 0 Z " fill="#1B1A19" transform="translate(469,672)"/>
<path d="M0 0 C0.66 0 1.32 0 2 0 C2 0.66 2 1.32 2 2 C31.04 2 60.08 2 90 2 C91 6 91 6 90.0625 8.25 C89.711875 8.8275 89.36125 9.405 89 10 C88.01 9.67 87.02 9.34 86 9 C86.66 8.01 87.32 7.02 88 6 C86.39054001 5.98786972 86.39054001 5.98786972 84.74856567 5.97549438 C74.65380619 5.89812558 64.55918303 5.81041008 54.46460152 5.71247292 C49.2744427 5.66245327 44.08430481 5.61612389 38.89404297 5.578125 C33.88839109 5.54134361 28.88291188 5.49500349 23.87740707 5.44193649 C21.96440525 5.42335443 20.05136636 5.40826068 18.13830948 5.39665604 C15.46588577 5.37985855 12.79386084 5.35083995 10.12158203 5.31884766 C9.32460907 5.31668747 8.52763611 5.31452728 7.70651245 5.31230164 C2.22810432 5.22810432 2.22810432 5.22810432 0 3 C0 2.01 0 1.02 0 0 Z " fill="#262724" transform="translate(551,424)"/>
<path d="M0 0 C12 0 12 0 15.25 1.625 C17 4 17 4 17.5 7.0625 C16.95508042 10.26390255 16.55303415 11.1088636 14 13 C13.01 13.66 12.02 14.32 11 15 C13.31 18.96 15.62 22.92 18 27 C16.68 27 15.36 27 14 27 C11.99750118 24.02985075 10.49042736 20.91952528 8.87890625 17.72265625 C7.0579425 14.408676 7.0579425 14.408676 2 14 C2 18.29 2 22.58 2 27 C1.34 27 0.68 27 0 27 C0 18.09 0 9.18 0 0 Z " fill="#111110" transform="translate(672,673)"/>
<path d="M0 0 C12 0 12 0 15.25 1.625 C17 4 17 4 17.5 7.0625 C16.95508042 10.26390255 16.55303415 11.1088636 14 13 C13.01 13.66 12.02 14.32 11 15 C13.31 18.96 15.62 22.92 18 27 C16.68 27 15.36 27 14 27 C11.99750118 24.02985075 10.49042736 20.91952528 8.87890625 17.72265625 C7.0579425 14.408676 7.0579425 14.408676 2 14 C2 18.29 2 22.58 2 27 C1.34 27 0.68 27 0 27 C0 18.09 0 9.18 0 0 Z " fill="#111110" transform="translate(425,673)"/>
<path d="M0 0 C12 0 12 0 16 3 C16.53125 4.9375 16.53125 4.9375 16.5 7 C16.5103125 7.680625 16.520625 8.36125 16.53125 9.0625 C16 11 16 11 14.296875 12.73828125 C11.55056514 14.24688344 9.85994809 14.31026111 6.75 14.1875 C5.1825 14.125625 3.615 14.06375 2 14 C2 18.29 2 22.58 2 27 C1.34 27 0.68 27 0 27 C0 18.09 0 9.18 0 0 Z " fill="#050505" transform="translate(369,673)"/>
<path d="M0 0 C4.69994029 1.71728588 7.20959499 3.86606666 10 8 C11.4180274 12.25408219 11.89758508 15.89144885 10.09375 20.12890625 C7.48452183 24.66996682 5.14353952 27.35406735 0 29 C-5.49680001 29.81434074 -8.8272583 28.5511992 -13.265625 25.48046875 C-16.40116874 22.80395732 -17.6693501 20.08853541 -18.30859375 16.05078125 C-18.63062462 10.92756293 -17.41937119 7.9592719 -14 4 C-9.44787756 0.06862153 -5.81719888 -0.95402062 0 0 Z M-13 7 C-15.07398081 10.67660234 -15.51233197 13.8159556 -15 18 C-12.96006092 21.6578218 -11.49580738 23.66946174 -8 26 C-3.18459376 26.47364652 -0.94885045 26.49199653 3.375 24.25 C7.11134034 21.04742257 7.83381154 19.49569615 8.375 14.625 C7.92515417 10.27649031 6.79790424 8.32723747 4 5 C1.27602821 2.84949595 -0.51994936 2.08171075 -3.9375 1.5 C-8.16980112 2.19098794 -10.03266098 3.96522146 -13 7 Z " fill="#1C1B1A" transform="translate(655,672)"/>
<path d="M0 0 C4.69994029 1.71728588 7.20959499 3.86606666 10 8 C11.4180274 12.25408219 11.89758508 15.89144885 10.09375 20.12890625 C7.48452183 24.66996682 5.14353952 27.35406735 0 29 C-5.49680001 29.81434074 -8.8272583 28.5511992 -13.265625 25.48046875 C-16.40116874 22.80395732 -17.6693501 20.08853541 -18.30859375 16.05078125 C-18.63062462 10.92756293 -17.41937119 7.9592719 -14 4 C-9.44787756 0.06862153 -5.81719888 -0.95402062 0 0 Z M-13 7 C-15.07398081 10.67660234 -15.51233197 13.8159556 -15 18 C-12.96006092 21.6578218 -11.49580738 23.66946174 -8 26 C-3.18459376 26.47364652 -0.94885045 26.49199653 3.375 24.25 C7.11134034 21.04742257 7.83381154 19.49569615 8.375 14.625 C7.92515417 10.27649031 6.79790424 8.32723747 4 5 C1.27602821 2.84949595 -0.51994936 2.08171075 -3.9375 1.5 C-8.16980112 2.19098794 -10.03266098 3.96522146 -13 7 Z " fill="#1C1B1A" transform="translate(622,672)"/>
<path d="M0 0 C4.69994029 1.71728588 7.20959499 3.86606666 10 8 C11.4180274 12.25408219 11.89758508 15.89144885 10.09375 20.12890625 C7.48452183 24.66996682 5.14353952 27.35406735 0 29 C-5.49680001 29.81434074 -8.8272583 28.5511992 -13.265625 25.48046875 C-16.40116874 22.80395732 -17.6693501 20.08853541 -18.30859375 16.05078125 C-18.63062462 10.92756293 -17.41937119 7.9592719 -14 4 C-9.44787756 0.06862153 -5.81719888 -0.95402062 0 0 Z M-13 7 C-15.07398081 10.67660234 -15.51233197 13.8159556 -15 18 C-12.96006092 21.6578218 -11.49580738 23.66946174 -8 26 C-3.18459376 26.47364652 -0.94885045 26.49199653 3.375 24.25 C7.11134034 21.04742257 7.83381154 19.49569615 8.375 14.625 C7.92515417 10.27649031 6.79790424 8.32723747 4 5 C1.27602821 2.84949595 -0.51994936 2.08171075 -3.9375 1.5 C-8.16980112 2.19098794 -10.03266098 3.96522146 -13 7 Z " fill="#1C1B1A" transform="translate(511,672)"/>
<path d="M0 0 C4.69994029 1.71728588 7.20959499 3.86606666 10 8 C11.4180274 12.25408219 11.89758508 15.89144885 10.09375 20.12890625 C7.48452183 24.66996682 5.14353952 27.35406735 0 29 C-5.49680001 29.81434074 -8.8272583 28.5511992 -13.265625 25.48046875 C-16.40116874 22.80395732 -17.6693501 20.08853541 -18.30859375 16.05078125 C-18.63062462 10.92756293 -17.41937119 7.9592719 -14 4 C-9.44787756 0.06862153 -5.81719888 -0.95402062 0 0 Z M-13 7 C-15.07398081 10.67660234 -15.51233197 13.8159556 -15 18 C-12.96006092 21.6578218 -11.49580738 23.66946174 -8 26 C-3.18459376 26.47364652 -0.94885045 26.49199653 3.375 24.25 C7.11134034 21.04742257 7.83381154 19.49569615 8.375 14.625 C7.92515417 10.27649031 6.79790424 8.32723747 4 5 C1.27602821 2.84949595 -0.51994936 2.08171075 -3.9375 1.5 C-8.16980112 2.19098794 -10.03266098 3.96522146 -13 7 Z " fill="#1C1B1A" transform="translate(408,672)"/>
<path d="M0 0 C0.66 0 1.32 0 2 0 C0.30879348 5.17737456 -2.77389184 9.35406983 -5.8125 13.8125 C-7.07934207 15.69188852 -8.34488055 17.57215615 -9.609375 19.453125 C-10.65448242 21.00676758 -10.65448242 21.00676758 -11.72070312 22.59179688 C-16.04977955 29.04986512 -20.30053688 35.56005184 -24.5625 42.0625 C-25.23708252 43.09112656 -25.23708252 43.09112656 -25.92529297 44.14053345 C-33.31380589 55.40738376 -40.67436012 66.69214771 -48 78 C-48.66 77.34 -49.32 76.68 -50 76 C-45.13251865 68.10625761 -40.26903213 60.26026483 -34.8828125 52.70703125 C-29.14294216 44.45447909 -23.8244166 35.89811445 -18.4609375 27.3984375 C-3.99774975 4.49209515 -3.99774975 4.49209515 0 0 Z " fill="#151513" transform="translate(667,438)"/>
<path d="M0 0 C15.1 0 15.1 0 19 3 C22.34852927 6.78912523 23.68376266 9.84317391 23.37890625 14.9765625 C22.70889753 18.55454722 21.41665393 21.2731487 19 24 C12.50153963 28.19692233 8.47755573 27 0 27 C0 18.09 0 9.18 0 0 Z M2 2 C2 9.59 2 17.18 2 25 C11.04752688 25.15727752 11.04752688 25.15727752 18 21 C20.67076635 16.99385048 20.82787585 13.71061361 20 9 C17.56246638 5.90367351 15.26549269 4.17699513 12 2 C8.7 2 5.4 2 2 2 Z " fill="#141312" transform="translate(577,673)"/>
<path d="M0 0 C7.26 0 14.52 0 22 0 C22 1.32 22 2.64 22 4 C19.03 4 16.06 4 13 4 C13 11.92 13 19.84 13 28 C11.68 28 10.36 28 9 28 C9 20.08 9 12.16 9 4 C6.03 4 3.06 4 0 4 C0 2.68 0 1.36 0 0 Z " fill="#A19E96" transform="translate(551,672)"/>
<path d="M0 0 C2.4375 2 2.4375 2 4 4 C-0.1274515 4 -3.915021 3.54466387 -8 3 C-8 5.31 -8 7.62 -8 10 C-7.21753906 10.42152344 -6.43507813 10.84304688 -5.62890625 11.27734375 C-4.61699219 11.82519531 -3.60507812 12.37304688 -2.5625 12.9375 C-1.55316406 13.48277344 -0.54382813 14.02804687 0.49609375 14.58984375 C3 16 3 16 4 17 C4.28800741 19.92807534 4.48146102 22.14997212 4 25 C1.30036482 28.27228507 -0.29791641 28.91223955 -4.5 29.4375 C-8.13108948 28.98361382 -10.06927557 28.13143595 -13 26 C-12.505 24.515 -12.505 24.515 -12 23 C-11.484375 23.33 -10.96875 23.66 -10.4375 24 C-7.19478222 25.33034575 -4.47015228 25.19642371 -1 25 C0.35618499 23.87465895 0.35618499 23.87465895 0.0625 20.9375 C0.041875 19.968125 0.02125 18.99875 0 18 C-0.69867188 17.66226563 -1.39734375 17.32453125 -2.1171875 16.9765625 C-3.02726562 16.53054688 -3.93734375 16.08453125 -4.875 15.625 C-6.23238281 14.96371094 -6.23238281 14.96371094 -7.6171875 14.2890625 C-10 13 -10 13 -12 11 C-12.4375 7.625 -12.4375 7.625 -12 4 C-8.46532617 -0.17734179 -5.32759665 -0.77492315 0 0 Z " fill="#1F1E1C" transform="translate(359,672)"/>
<path d="M0 0 C0.66 0 1.32 0 2 0 C2.01458252 0.58491211 2.02916504 1.16982422 2.04418945 1.77246094 C2.1188357 4.43229397 2.21543899 7.09089448 2.3125 9.75 C2.33505859 10.67039062 2.35761719 11.59078125 2.38085938 12.5390625 C2.41630859 13.42851563 2.45175781 14.31796875 2.48828125 15.234375 C2.51446533 16.05131836 2.54064941 16.86826172 2.56762695 17.70996094 C3.10140543 20.53708805 3.99804515 21.94733708 6 24 C10.6076576 24.63377851 10.6076576 24.63377851 14.68676758 22.77807617 C16.39499039 20.4651952 16.42507127 18.97264815 16.51171875 16.11328125 C16.54716797 15.17548828 16.58261719 14.23769531 16.61914062 13.27148438 C16.64169922 12.29501953 16.66425781 11.31855469 16.6875 10.3125 C16.72166016 9.32443359 16.75582031 8.33636719 16.79101562 7.31835938 C16.87350538 4.87901947 16.94265068 2.44003937 17 0 C17.99 0 18.98 0 20 0 C20.14611313 3.37453898 20.23433467 6.74825766 20.3125 10.125 C20.35439453 11.07632813 20.39628906 12.02765625 20.43945312 13.0078125 C20.57759974 20.96505739 20.57759974 20.96505739 17.60546875 24.6171875 C14.54375948 27.41725145 13.79927072 27.9245971 9.6875 28.3125 C5.42463889 27.95124058 3.98007946 26.98007946 1 24 C-0.25248502 21.49502996 -0.11374406 19.79146726 -0.09765625 16.9921875 C-0.09443359 16.00605469 -0.09121094 15.01992188 -0.08789062 14.00390625 C-0.07951172 12.97136719 -0.07113281 11.93882812 -0.0625 10.875 C-0.05798828 9.83472656 -0.05347656 8.79445313 -0.04882812 7.72265625 C-0.03701952 5.14838038 -0.02055075 2.57421854 0 0 Z " fill="#131211" transform="translate(528,673)"/>
<path d="M0 0 C78.705 0.495 78.705 0.495 159 1 C159 1.33 159 1.66 159 2 C138.56442348 2.2004622 118.12876229 2.38379331 97.69285011 2.54658794 C88.20464549 2.62257382 78.71655193 2.70421916 69.22851562 2.79907227 C60.96119855 2.88170746 52.69386891 2.95384184 44.42635095 3.01323253 C40.04652288 3.04506586 35.66688429 3.08224778 31.28722 3.13199425 C27.16858516 3.17861016 23.05008123 3.21123091 18.93124199 3.2329216 C17.41623235 3.24340315 15.9012488 3.25908463 14.38635063 3.28024101 C12.32432649 3.30827564 10.26302564 3.31792263 8.20083618 3.32279968 C6.46694358 3.33800927 6.46694358 3.33800927 4.69802284 3.35352612 C3.8076753 3.2368625 2.91732777 3.12019888 2 3 C1.34 2.01 0.68 1.02 0 0 Z " fill="#161716" transform="translate(526,402)"/>
<path d="M0 0 C0.66 0.66 1.32 1.32 2 2 C1.00115654 3.49826519 0.00230955 4.99652803 -0.99655151 6.49478149 C-1.89335649 7.84001997 -2.79010359 9.18529702 -3.6867981 10.53060913 C-6.17365394 14.26145114 -8.66154469 17.99159604 -11.15136719 21.72045898 C-15.62488235 28.42221821 -20.09315742 35.12646589 -24.5078125 41.8671875 C-25.15089355 42.84534424 -25.79397461 43.82350098 -26.45654297 44.83129883 C-27.63050679 46.61909263 -28.79902668 48.41047602 -29.96142578 50.20581055 C-30.47431152 50.98480713 -30.98719727 51.76380371 -31.515625 52.56640625 C-31.95165039 53.23615479 -32.38767578 53.90590332 -32.83691406 54.59594727 C-33.22073242 55.05928467 -33.60455078 55.52262207 -34 56 C-34.66 56 -35.32 56 -36 56 C-34.45418766 51.52393899 -32.0299293 47.81620915 -29.375 43.9375 C-28.46869804 42.59638928 -27.56244868 41.25524301 -26.65625 39.9140625 C-26.20636719 39.25180664 -25.75648438 38.58955078 -25.29296875 37.90722656 C-23.47095363 35.21961665 -21.67280738 32.51634523 -19.875 29.8125 C-15.54036458 23.31054688 -11.20572917 16.80859375 -6.87109375 10.30664062 C-6.49082031 9.73623047 -6.11054687 9.16582031 -5.71875 8.578125 C-2.859375 4.2890625 -2.859375 4.2890625 0 0 Z " fill="#161613" transform="translate(523,563)"/>
<path d="M0 0 C-2 2 -2 2 -4.2734375 2.01171875 C-5.29695313 1.90472656 -6.32046875 1.79773438 -7.375 1.6875 C-12.60604176 1.21643236 -17.79958365 0.92186654 -23.05078125 0.7734375 C-24.93047607 0.71990112 -24.93047607 0.71990112 -26.84814453 0.6652832 C-29.39452085 0.59711428 -31.94108702 0.53568229 -34.48779297 0.48120117 C-35.67131348 0.44744385 -36.85483398 0.41368652 -38.07421875 0.37890625 C-39.67656372 0.34132202 -39.67656372 0.34132202 -41.3112793 0.30297852 C-44 0 -44 0 -47 -2 C-31.48894894 -5.0872718 -15.39001592 -2.5959063 0 0 Z " fill="#292926" transform="translate(481,402)"/>
<path d="M0 0 C0.99 0.33 1.98 0.66 3 1 C-4.66495672 13.10295331 -12.34507665 25.19714812 -20.375 37.0625 C-20.91535889 37.87050049 -21.45571777 38.67850098 -22.01245117 39.51098633 C-22.51107666 40.2408374 -23.00970215 40.97068848 -23.5234375 41.72265625 C-24.1719165 42.67797241 -24.1719165 42.67797241 -24.83349609 43.65258789 C-25.21844238 44.09723389 -25.60338867 44.54187988 -26 45 C-26.66 45 -27.32 45 -28 45 C-26.41141411 40.40201197 -23.96531874 36.66315345 -21.28125 32.65234375 C-20.8227063 31.95863174 -20.3641626 31.26491974 -19.89172363 30.55018616 C-18.43206395 28.34310756 -16.96645322 26.1400694 -15.5 23.9375 C-14.03435191 21.73084526 -12.57003825 19.52333331 -11.10827637 17.31410217 C-10.20032373 15.94239216 -9.29002149 14.5722337 -8.3770752 13.20384216 C-6.39438243 10.21313261 -4.48869815 7.27070282 -3 4 C-2.34 4 -1.68 4 -1 4 C-0.67 2.68 -0.34 1.36 0 0 Z " fill="#1F1E1C" transform="translate(598,542)"/>
<path d="M0 0 C8.625 -0.25 8.625 -0.25 12 2 C12.375 5 12.375 5 12 8 C7.7975546 10.80163026 4.99895065 10.14489712 0 10 C0 6.7 0 3.4 0 0 Z " fill="#D8D5CA" transform="translate(674,675)"/>
<path d="M0 0 C8.625 -0.25 8.625 -0.25 12 2 C12.375 5 12.375 5 12 8 C7.7975546 10.80163026 4.99895065 10.14489712 0 10 C0 6.7 0 3.4 0 0 Z " fill="#D8D5CA" transform="translate(427,675)"/>
<path d="M0 0 C1.423125 -0.061875 2.84625 -0.12375 4.3125 -0.1875 C5.51326172 -0.23970703 5.51326172 -0.23970703 6.73828125 -0.29296875 C9 0 9 0 10.8046875 1.3515625 C12 3 12 3 11.8125 5.5625 C11 8 11 8 9 10 C5.98173347 10.27240673 3.03629378 10.08675125 0 10 C0 6.7 0 3.4 0 0 Z " fill="#D9D6CB" transform="translate(371,675)"/>
<path d="M0 0 C0.99 0.33 1.98 0.66 3 1 C-0.52041483 6.37736218 -4.04454442 11.75227542 -7.57128906 17.12548828 C-8.77104356 18.95435065 -9.96994097 20.78377558 -11.16796875 22.61376953 C-12.88838217 25.24138771 -14.61185004 27.86697901 -16.3359375 30.4921875 C-16.87245941 31.31306854 -17.40898132 32.13394958 -17.96176147 32.97970581 C-18.46212921 33.74034332 -18.96249695 34.50098083 -19.47802734 35.28466797 C-19.91770844 35.95529266 -20.35738953 36.62591736 -20.81039429 37.31686401 C-22 39 -22 39 -24 41 C-24.33 40.34 -24.66 39.68 -25 39 C-21.74668548 32.23653035 -17.40922959 26.01838288 -13.04296875 19.93359375 C-8.50553489 13.41808165 -4.28457422 6.68351675 0 0 Z " fill="#131311" transform="translate(557,511)"/>
<path d="M0 0 C2.24420822 0.9818411 3.47366265 1.96707831 5 3.875 C5 4.535 5 5.195 5 5.875 C5.66 5.875 6.32 5.875 7 5.875 C5.125 9.75 5.125 9.75 4 10.875 C0.5625 11.0625 0.5625 11.0625 -3 10.875 C-5 8.875 -5 8.875 -5.3125 5.9375 C-5 2.875 -5 2.875 -3.75 0.9375 C-2 -0.125 -2 -0.125 0 0 Z " fill="#DCD8CD" transform="translate(464,687.125)"/>
<path d="M0 0 C13 0 13 0 16 2 C12 3 12 3 2 2 C2.33 9.59 2.66 17.18 3 25 C4.98 25.33 6.96 25.66 9 26 C9 26.33 9 26.66 9 27 C6.03 27 3.06 27 0 27 C0 18.09 0 9.18 0 0 Z " fill="#060505" transform="translate(577,673)"/>
<path d="M0 0 C6.6 0 13.2 0 20 0 C20 0.66 20 1.32 20 2 C17.03 2 14.06 2 11 2 C11 10.25 11 18.5 11 27 C10.34 27 9.68 27 9 27 C9 18.75 9 10.5 9 2 C6.03 2 3.06 2 0 2 C0 1.34 0 0.68 0 0 Z " fill="#050504" transform="translate(552,673)"/>
<path d="M0 0 C0.99 0.33 1.98 0.66 3 1 C0.64062202 5.893217 -1.66611602 10.66375129 -6.50390625 13.43359375 C-15.43445574 16.02953929 -24.86807235 14.84216666 -34 14 C-34 13.67 -34 13.34 -34 13 C-32.66195313 13.03480469 -32.66195313 13.03480469 -31.296875 13.0703125 C-30.12640625 13.08835937 -28.9559375 13.10640625 -27.75 13.125 C-26.58984375 13.14820313 -25.4296875 13.17140625 -24.234375 13.1953125 C-21.05349637 13.00323046 -19.7228862 12.46146749 -17 11 C-15.21188432 10.78121243 -13.41947911 10.59583639 -11.625 10.4375 C-8.07490446 9.871956 -6.46755689 9.48536858 -3.94921875 6.87109375 C-2.48000342 4.63045272 -1.173866 2.40716826 0 0 Z " fill="#1B1B19" transform="translate(485,620)"/>
<path d="M0 0 C0.66 0.66 1.32 1.32 2 2 C1.39414062 2.40089844 0.78828125 2.80179687 0.1640625 3.21484375 C-10.99416994 10.7852753 -19.01576677 18.47016246 -26 30 C-26.66 29.67 -27.32 29.34 -28 29 C-26.65686815 25.21908383 -24.97035316 22.34348084 -22.5 19.1875 C-21.8915625 18.39730469 -21.283125 17.60710937 -20.65625 16.79296875 C-20.1096875 16.20128906 -19.563125 15.60960937 -19 15 C-18.34 15 -17.68 15 -17 15 C-16.78085937 14.43539063 -16.56171875 13.87078125 -16.3359375 13.2890625 C-14.57142461 10.26565737 -12.35089222 8.56009859 -9.625 6.375 C-8.66851562 5.59898437 -7.71203125 4.82296875 -6.7265625 4.0234375 C-4.51019423 2.37862552 -2.51177212 1.1070844 0 0 Z " fill="#0F0F0D" transform="translate(411,434)"/>
<path d="M0 0 C0.33 0 0.66 0 1 0 C1.77569763 13.1222183 1.77569763 13.1222183 -3 19 C-8.34218833 22.9580759 -13.37894552 24.47293246 -20 24 C-21.9375 22.5 -21.9375 22.5 -23 21 C-20.40227705 19.70113852 -18.64236147 20.0413014 -15.75 20.1875 C-10.66199983 20.2341789 -7.8538532 19.55740296 -4 16 C-2.13353666 12.95883946 -1.685509 10.41044749 -1.4375 6.875 C-1.09722222 2.19444444 -1.09722222 2.19444444 0 0 Z " fill="#151513" transform="translate(501,357)"/>
<path d="M0 0 C0.66 0.66 1.32 1.32 2 2 C1.24976563 2.47308594 0.49953125 2.94617188 -0.2734375 3.43359375 C-6.68376531 7.5752791 -12.3180372 11.83092226 -17.84375 17.1171875 C-19.84744331 18.86678927 -21.6358421 19.84384383 -24 21 C-24.495 22.0209375 -24.495 22.0209375 -25 23.0625 C-25.33 23.701875 -25.66 24.34125 -26 25 C-28.0625 25.62109375 -28.0625 25.62109375 -30 26 C-21.09287362 15.26577077 -11.74722449 7.41359753 0 0 Z " fill="#090907" transform="translate(394,413)"/>
<path d="M0 0 C3.96 0 7.92 0 12 0 C12.66 0.66 13.32 1.32 14 2 C10.90521121 3.03159626 9.47368607 2.97482862 6.3125 2.5625 C5.50425781 2.46066406 4.69601562 2.35882812 3.86328125 2.25390625 C3.24839844 2.17011719 2.63351562 2.08632813 2 2 C2.08378906 2.71542969 2.16757812 3.43085937 2.25390625 4.16796875 C3.04599287 11.91838595 2.81154719 19.25908832 2 27 C1.34 27 0.68 27 0 27 C0 18.09 0 9.18 0 0 Z " fill="#050505" transform="translate(672,673)"/>
<path d="M0 0 C3.96 0 7.92 0 12 0 C12.66 0.66 13.32 1.32 14 2 C10.90521121 3.03159626 9.47368607 2.97482862 6.3125 2.5625 C5.50425781 2.46066406 4.69601562 2.35882812 3.86328125 2.25390625 C3.24839844 2.17011719 2.63351562 2.08632813 2 2 C2.08378906 2.71542969 2.16757812 3.43085937 2.25390625 4.16796875 C3.04599287 11.91838595 2.81154719 19.25908832 2 27 C1.34 27 0.68 27 0 27 C0 18.09 0 9.18 0 0 Z " fill="#050505" transform="translate(425,673)"/>
<path d="M0 0 C4.77800128 1.65058226 7.11259538 3.89100112 10 8 C9.01 8 8.02 8 7 8 C5.66666667 6.66666667 4.33333333 5.33333333 3 4 C-0.69264402 2.41743828 -5.04773001 2.54245178 -9 3 C-11.74832154 4.28184562 -11.74832154 4.28184562 -14 6 C-14.7425 6.350625 -15.485 6.70125 -16.25 7.0625 C-18.18053285 7.88003585 -18.18053285 7.88003585 -19 10 C-19 7 -19 7 -16.6875 4.4375 C-11.16411851 -0.57207857 -7.20959539 -0.66105173 0 0 Z " fill="#161513" transform="translate(490,346)"/>
<path d="M0 0 C0.66 0 1.32 0 2 0 C2.01458252 0.58491211 2.02916504 1.16982422 2.04418945 1.77246094 C2.1188357 4.43229397 2.21543899 7.09089448 2.3125 9.75 C2.33505859 10.67039062 2.35761719 11.59078125 2.38085938 12.5390625 C2.41630859 13.42851563 2.45175781 14.31796875 2.48828125 15.234375 C2.51446533 16.05131836 2.54064941 16.86826172 2.56762695 17.70996094 C3.10242238 20.54247428 3.99851747 21.93896495 6 24 C9.60465748 24.81314911 9.60465748 24.81314911 13 25 C13 25.33 13 25.66 13 26 C11.59013562 26.3042656 10.17131189 26.56720908 8.75 26.8125 C7.96109375 26.96332031 7.1721875 27.11414063 6.359375 27.26953125 C4 27 4 27 1.71875 25.21875 C-0.84161601 20.42388274 -0.4277087 16.02901334 -0.25 10.6875 C-0.23195313 9.66076172 -0.21390625 8.63402344 -0.1953125 7.57617188 C-0.14831063 5.04982115 -0.08262272 2.52539531 0 0 Z " fill="#0C0C0B" transform="translate(528,673)"/>
<path d="M0 0 C0.60585938 0.12117187 1.21171875 0.24234375 1.8359375 0.3671875 C3.09277344 0.61855469 3.09277344 0.61855469 4.375 0.875 C5.28378906 1.060625 6.19257813 1.24625 7.12890625 1.4375 C8.98519648 1.80118135 10.84735664 2.13655244 12.71484375 2.4375 C17.8543156 3.30309526 21.17956793 4.17956793 25 8 C15.83404773 7.75763107 7.60321558 4.89264444 -1 2 C-0.67 1.34 -0.34 0.68 0 0 Z " fill="#1B1B18" transform="translate(409,627)"/>
<path d="M0 0 C0.7650446 2.48639495 0.98396928 4.24580443 0.8125 6.875 C1.05754335 10.9590558 2.46851788 12.83564735 5 16 C7.10575643 17.83300909 7.10575643 17.83300909 9 19 C8.01 19.33 7.02 19.66 6 20 C1.18765341 17.49356948 -1.22167865 15.13737279 -3 10 C-3.38436049 7.13864965 -3.29268292 4.92682919 -3 2 C-2.01 1.34 -1.02 0.68 0 0 Z " fill="#191817" transform="translate(640,680)"/>
<path d="M0 0 C0.7650446 2.48639495 0.98396928 4.24580443 0.8125 6.875 C1.05754335 10.9590558 2.46851788 12.83564735 5 16 C7.10575643 17.83300909 7.10575643 17.83300909 9 19 C8.01 19.33 7.02 19.66 6 20 C1.18765341 17.49356948 -1.22167865 15.13737279 -3 10 C-3.38436049 7.13864965 -3.29268292 4.92682919 -3 2 C-2.01 1.34 -1.02 0.68 0 0 Z " fill="#191817" transform="translate(607,680)"/>
<path d="M0 0 C0.7650446 2.48639495 0.98396928 4.24580443 0.8125 6.875 C1.05754335 10.9590558 2.46851788 12.83564735 5 16 C7.10575643 17.83300909 7.10575643 17.83300909 9 19 C8.01 19.33 7.02 19.66 6 20 C1.18765341 17.49356948 -1.22167865 15.13737279 -3 10 C-3.38436049 7.13864965 -3.29268292 4.92682919 -3 2 C-2.01 1.34 -1.02 0.68 0 0 Z " fill="#191817" transform="translate(496,680)"/>
<path d="M0 0 C0.7650446 2.48639495 0.98396928 4.24580443 0.8125 6.875 C1.05754335 10.9590558 2.46851788 12.83564735 5 16 C7.10575643 17.83300909 7.10575643 17.83300909 9 19 C8.01 19.33 7.02 19.66 6 20 C1.18765341 17.49356948 -1.22167865 15.13737279 -3 10 C-3.38436049 7.13864965 -3.29268292 4.92682919 -3 2 C-2.01 1.34 -1.02 0.68 0 0 Z " fill="#191817" transform="translate(393,680)"/>
<path d="M0 0 C2.625 0.375 2.625 0.375 5 1 C5.125 3.875 5.125 3.875 5 7 C4.34 7.66 3.68 8.32 3 9 C1.68 9 0.36 9 -1 9 C-1.625 5.625 -1.625 5.625 -2 2 C-1.34 1.34 -0.68 0.68 0 0 Z " fill="#DCD8CD" transform="translate(464,674)"/>
<path d="M0 0 C2.4375 2 2.4375 2 4 4 C-0.1274515 4 -3.915021 3.54466387 -8 3 C-8.33 4.98 -8.66 6.96 -9 9 C-9.99 8.01 -10.98 7.02 -12 6 C-9.46977419 0.16101737 -6.15523662 -0.64791964 0 0 Z " fill="#262523" transform="translate(359,672)"/>
<path d="M0 0 C0.66 0 1.32 0 2 0 C0.66786942 3.5865054 -0.76916059 6.87682483 -3 10 C-3.99 10 -4.98 10 -6 10 C-6 10.66 -6 11.32 -6 12 C-12.6 11.67 -19.2 11.34 -26 11 C-26 10.67 -26 10.34 -26 10 C-24.73542969 9.93941406 -23.47085937 9.87882813 -22.16796875 9.81640625 C-20.50780129 9.73199096 -18.84764563 9.64734345 -17.1875 9.5625 C-16.35412109 9.52318359 -15.52074219 9.48386719 -14.66210938 9.44335938 C-13.85966797 9.40146484 -13.05722656 9.35957031 -12.23046875 9.31640625 C-11.49207764 9.27974854 -10.75368652 9.24309082 -9.99291992 9.20532227 C-7.792505 9.05157859 -7.792505 9.05157859 -5 8 C-3.62322215 6.13692349 -3.62322215 6.13692349 -2.4375 3.9375 C-1.18359375 1.71484375 -1.18359375 1.71484375 0 0 Z " fill="#2B2A27" transform="translate(468,598)"/>
<path d="M0 0 C0.66 0.33 1.32 0.66 2 1 C0.40079629 3.60733212 -1.20408923 6.21085643 -2.8125 8.8125 C-3.26431641 9.55048828 -3.71613281 10.28847656 -4.18164062 11.04882812 C-4.62314453 11.76103516 -5.06464844 12.47324219 -5.51953125 13.20703125 C-5.92276611 13.8616333 -6.32600098 14.51623535 -6.74145508 15.19067383 C-8.00966807 17.01389913 -9.38395896 18.48252309 -11 20 C-11.33 19.34 -11.66 18.68 -12 18 C-11.22729492 16.3359375 -11.22729492 16.3359375 -9.98046875 14.375 C-9.53509766 13.66859375 -9.08972656 12.9621875 -8.63085938 12.234375 C-8.15455078 11.49703125 -7.67824219 10.7596875 -7.1875 10 C-6.72279297 9.26265625 -6.25808594 8.5253125 -5.77929688 7.765625 C-2.30944549 2.30944549 -2.30944549 2.30944549 0 0 Z " fill="#1B1B19" transform="translate(612,522)"/>
<path d="M0 0 C4.60544645 0.30659488 7.90647159 1.78785567 11.875 4.0625 C12.84179688 4.61035156 13.80859375 5.15820312 14.8046875 5.72265625 C15.89136719 6.35494141 15.89136719 6.35494141 17 7 C16.34 7.66 15.68 8.32 15 9 C14.27554687 8.66226562 13.55109375 8.32453125 12.8046875 7.9765625 C7.93300543 5.72909317 3.15481852 3.53251361 -2 2 C-1.34 1.34 -0.68 0.68 0 0 Z " fill="#1C1C19" transform="translate(472,427)"/>
<path d="M0 0 C0.66 0 1.32 0 2 0 C1.5359375 1.1446875 1.5359375 1.1446875 1.0625 2.3125 C-0.14032753 6.48701907 -0.42290705 10.38435302 -0.65625 14.70703125 C-0.7696875 15.46371094 -0.883125 16.22039062 -1 17 C-1.66 17.33 -2.32 17.66 -3 18 C-4.37235948 13.71137663 -4.97974515 9.19907864 -3.10546875 4.9921875 C-2.13130341 3.291701 -1.07157407 1.64084779 0 0 Z " fill="#22211F" transform="translate(409,352)"/>
<path d="M0 0 C1.32 0.33 2.64 0.66 4 1 C4.47947883 8.31205212 4.47947883 8.31205212 2.5625 11.0625 C-1.36474692 12.49929765 -4.94939073 11.71837729 -9 11 C-9 10.67 -9 10.34 -9 10 C-7.72125 9.87625 -6.4425 9.7525 -5.125 9.625 C-1.65209064 9.30957601 -1.65209064 9.30957601 1 7 C0.67673447 3.40320934 0.67673447 3.40320934 0 0 Z " fill="#181716" transform="translate(381,675)"/>
<path d="M0 0 C0.66 0 1.32 0 2 0 C0.51390706 4.17189634 -1.55302175 7.62853826 -4 11.3125 C-4.70125 12.38113281 -5.4025 13.44976563 -6.125 14.55078125 C-6.74375 15.35902344 -7.3625 16.16726563 -8 17 C-8.66 17 -9.32 17 -10 17 C-8.51390706 12.82810366 -6.44697825 9.37146174 -4 5.6875 C-3.29875 4.61886719 -2.5975 3.55023437 -1.875 2.44921875 C-1.25625 1.64097656 -0.6375 0.83273437 0 0 Z " fill="#131311" transform="translate(580,570)"/>
<path d="M0 0 C0.66 0 1.32 0 2 0 C1.78466133 3.76842665 1.00263823 4.99717333 -1.625 7.8125 C-4.98570648 10.42275746 -7.78452743 10.42154726 -12 10 C-12 9.34 -12 8.68 -12 8 C-9.69 8 -7.38 8 -5 8 C-5 7.34 -5 6.68 -5 6 C-4.02246356 4.97803008 -3.0194119 3.98020375 -2 3 C-1.34 2.01 -0.68 1.02 0 0 Z " fill="#201F1E" transform="translate(546,691)"/>
<path d="M0 0 C0.66 0.66 1.32 1.32 2 2 C-3 5.33333333 -8 8.66666667 -13 12 C-13.99 11.67 -14.98 11.34 -16 11 C-13.70955906 9.35243739 -11.41771923 7.70688669 -9.125 6.0625 C-8.14853516 5.35963867 -8.14853516 5.35963867 -7.15234375 4.64257812 C-2.2265625 1.11328125 -2.2265625 1.11328125 0 0 Z " fill="#171714" transform="translate(394,413)"/>
<path d="M0 0 C0.99 0.33 1.98 0.66 3 1 C-1.455 7.93 -1.455 7.93 -6 15 C-6.66 14.67 -7.32 14.34 -8 14 C-6.6744419 10.37723685 -5.05653045 7.36494652 -2.875 4.1875 C-2.33617187 3.39730469 -1.79734375 2.60710938 -1.2421875 1.79296875 C-0.83226562 1.20128906 -0.42234375 0.60960937 0 0 Z " fill="#1F1E1C" transform="translate(557,511)"/>
<path d="M0 0 C2.22942748 0.14179038 4.45853628 0.28859698 6.6875 0.4375 C7.92886719 0.51871094 9.17023438 0.59992188 10.44921875 0.68359375 C13.38180337 0.94491317 16.13441617 1.34798379 19 2 C17 4 17 4 13.84765625 4.08203125 C12.59855469 3.99308594 11.34945313 3.90414063 10.0625 3.8125 C8.19271484 3.69841797 8.19271484 3.69841797 6.28515625 3.58203125 C2.99169089 2.99852787 1.93039248 2.64271443 0 0 Z " fill="#21211E" transform="translate(462,400)"/>
<path d="M0 0 C3.89799684 3.72851871 3.89799684 3.72851871 4.16796875 7.09375 C4.17441406 7.8878125 4.18085938 8.681875 4.1875 9.5 C4.20167969 10.2940625 4.21585937 11.088125 4.23046875 11.90625 C4 14 4 14 2 16 C0.5192152 13.0384304 0.64685963 10.16493705 0.4375 6.875 C0.35371094 5.59367187 0.26992188 4.31234375 0.18359375 2.9921875 C0.12300781 2.00476563 0.06242187 1.01734375 0 0 Z " fill="#22211E" transform="translate(436,353)"/>
<path d="M0 0 C0.99 0.33 1.98 0.66 3 1 C1.74151422 3.0087944 0.46948954 5.00629298 -0.8125 7 C-1.87404297 8.670625 -1.87404297 8.670625 -2.95703125 10.375 C-3.63121094 11.24125 -4.30539062 12.1075 -5 13 C-5.99 13 -6.98 13 -8 13 C-6.35 10.03 -4.7 7.06 -3 4 C-2.34 4 -1.68 4 -1 4 C-0.67 2.68 -0.34 1.36 0 0 Z " fill="#141412" transform="translate(598,542)"/>
<path d="M0 0 C0.12375 1.11375 0.2475 2.2275 0.375 3.375 C0.6465813 7.03103677 0.6465813 7.03103677 3 9 C4.98821313 9.39764263 6.98944339 9.73775349 9 10 C9 10.33 9 10.66 9 11 C6.14133991 11.23822167 3.80180916 11.42775712 1 11 C-1.90799783 8.4555019 -2.90702057 7.04601863 -3.25 3.1875 C-3.1675 2.465625 -3.085 1.74375 -3 1 C-1 0 -1 0 0 0 Z " fill="#0B0B0A" transform="translate(459,689)"/>
<path d="M0 0 C4.09189762 1.36396587 4.61547327 3.34848983 6.6875 7.0625 C7.31011719 8.16722656 7.93273437 9.27195312 8.57421875 10.41015625 C9.04472656 11.26480469 9.51523437 12.11945313 10 13 C9.01 13.33 8.02 13.66 7 14 C5.82807953 12.04480616 4.6626071 10.0857461 3.5 8.125 C2.8503125 7.03445313 2.200625 5.94390625 1.53125 4.8203125 C0 2 0 2 0 0 Z " fill="#181715" transform="translate(538,442)"/>
<path d="M0 0 C4.95 0.33 9.9 0.66 15 1 C12.24155396 3.75844604 10.36445559 3.97396746 6.5 4.25 C3 4 3 4 1.0625 2.5625 C0 1 0 1 0 0 Z " fill="#1F1F1C" transform="translate(478,377)"/>
<path d="M0 0 C0.33 0.66 0.66 1.32 1 2 C-0.11375 2.2475 -1.2275 2.495 -2.375 2.75 C-6.04208728 3.59365982 -6.04208728 3.59365982 -7.3125 6.0625 C-7.6528125 7.0215625 -7.6528125 7.0215625 -8 8 C-8.99 8.495 -8.99 8.495 -10 9 C-10.25 6.1875 -10.25 6.1875 -10 3 C-7.05843777 -0.39411027 -4.30855278 -0.29376496 0 0 Z " fill="#2A2927" transform="translate(469,672)"/>
<path d="M0 0 C-1.26537837 3.7961351 -2.55055411 4.15494755 -6 6 C-6.7425 6.350625 -7.485 6.70125 -8.25 7.0625 C-10.18053285 7.88003585 -10.18053285 7.88003585 -11 10 C-11 7 -11 7 -8.6875 4.4375 C-3.79487179 0 -3.79487179 0 0 0 Z " fill="#1F1E1C" transform="translate(482,346)"/>
<path d="M0 0 C0.66 0 1.32 0 2 0 C0.86935881 3.289138 -0.62486687 6.25592608 -2.375 9.25 C-2.77460938 9.93578125 -3.17421875 10.6215625 -3.5859375 11.328125 C-5.28752197 13.33994311 -6.43569434 13.62899407 -9 14 C-7.87540329 12.22891052 -6.75030797 10.45813764 -5.625 8.6875 C-4.99851562 7.70136719 -4.37203125 6.71523438 -3.7265625 5.69921875 C-2.50348387 3.78712071 -1.2590644 1.8885966 0 0 Z " fill="#191916" transform="translate(490,565)"/>
<path d="M0 0 C4.13621084 3.3810038 7.81316569 6.66590534 11 11 C8 11 8 11 5.73828125 9.03125 C4.93777344 8.1959375 4.13726562 7.360625 3.3125 6.5 C2.50425781 5.6646875 1.69601562 4.829375 0.86328125 3.96875 C0.24839844 3.3190625 -0.36648438 2.669375 -1 2 C-0.67 1.34 -0.34 0.68 0 0 Z " fill="#1F1F1B" transform="translate(367,598)"/>
<path d="M0 0 C0.7734375 0.433125 0.7734375 0.433125 1.5625 0.875 C4.62356725 2.28780027 7.74944918 3.1248517 11 4 C11 4.66 11 5.32 11 6 C5.97745369 6.2954439 3.10457614 5.98514628 -1 3 C-0.67 2.01 -0.34 1.02 0 0 Z " fill="#33322F" transform="translate(347,695)"/>
<path d="M0 0 C2.95749791 3.46741134 5.07848152 6.86873527 7 11 C5.68 11 4.36 11 3 11 C-1.06153846 4.6 -1.06153846 4.6 -0.75 1.5625 C-0.5025 1.046875 -0.255 0.53125 0 0 Z " fill="#191817" transform="translate(683,689)"/>
<path d="M0 0 C2.95749791 3.46741134 5.07848152 6.86873527 7 11 C5.68 11 4.36 11 3 11 C-1.06153846 4.6 -1.06153846 4.6 -0.75 1.5625 C-0.5025 1.046875 -0.255 0.53125 0 0 Z " fill="#191817" transform="translate(436,689)"/>
<path d="M0 0 C5.28798182 0.41474367 8.11690718 1.35224614 12 5 C10.41590006 4.88512252 8.83271037 4.75765492 7.25 4.625 C6.36828125 4.55539062 5.4865625 4.48578125 4.578125 4.4140625 C2.00933618 4.00149945 0.24158985 3.28839043 -2 2 C-1.34 2 -0.68 2 0 2 C0 1.34 0 0.68 0 0 Z " fill="#292925" transform="translate(422,630)"/>
<path d="M0 0 C0.99 0.33 1.98 0.66 3 1 C-0.3 4.3 -3.6 7.6 -7 11 C-7.66 10.67 -8.32 10.34 -9 10 C-7.8758824 8.70756532 -6.75067408 7.41607925 -5.625 6.125 C-4.99851562 5.40570313 -4.37203125 4.68640625 -3.7265625 3.9453125 C-2.52573166 2.5923402 -1.2791655 1.2791655 0 0 Z " fill="#DAD8CF" transform="translate(400,444)"/>
<path d="M0 0 C0.66 0.66 1.32 1.32 2 2 C0.40207898 3.17520646 -1.20356908 4.33991247 -2.8125 5.5 C-4.15248047 6.47453125 -4.15248047 6.47453125 -5.51953125 7.46875 C-8 9 -8 9 -11 9 C-7.86077669 4.47951843 -4.78504172 2.48454089 0 0 Z " fill="#1C1C1A" transform="translate(411,434)"/>
<path d="M0 0 C0.89203125 0.10183594 1.7840625 0.20367187 2.703125 0.30859375 C3.37859375 0.39238281 4.0540625 0.47617187 4.75 0.5625 C4.75 0.8925 4.75 1.2225 4.75 1.5625 C0.13 2.2225 -4.49 2.8825 -9.25 3.5625 C-9.25 2.5725 -9.25 1.5825 -9.25 0.5625 C-5.98086376 -0.46865279 -3.38958652 -0.4013984 0 0 Z " fill="#181916" transform="translate(437.25,425.4375)"/>
<path d="M0 0 C0.66 0.99 1.32 1.98 2 3 C-0.53363068 7.22271781 -2.56620325 9.78310162 -7 12 C-7 9 -7 9 -4.625 6.5625 C-3.75875 5.716875 -2.8925 4.87125 -2 4 C-0.70480005 1.83379456 -0.70480005 1.83379456 0 0 Z " fill="#121210" transform="translate(437,367)"/>
<path d="M0 0 C2.9156164 3.54039134 5.50127818 7.1626772 8 11 C7.01 11 6.02 11 5 11 C3.359375 9.35546875 3.359375 9.35546875 1.75 7.1875 C1.20859375 6.47980469 0.6671875 5.77210938 0.109375 5.04296875 C-0.25671875 4.36878906 -0.6228125 3.69460938 -1 3 C-0.67 2.01 -0.34 1.02 0 0 Z " fill="#191916" transform="translate(384,570)"/>
<path d="M0 0 C1 4 1 4 -0.21484375 6.359375 C-0.78332031 7.14828125 -1.35179687 7.9371875 -1.9375 8.75 C-2.50339844 9.54921875 -3.06929687 10.3484375 -3.65234375 11.171875 C-4.09707031 11.77515625 -4.54179688 12.3784375 -5 13 C-5.99 12.67 -6.98 12.34 -8 12 C-5.36 8.04 -2.72 4.08 0 0 Z " fill="#181814" transform="translate(517,524)"/>
<path d="M0 0 C0 0.99 0 1.98 0 3 C-2.95664519 4.4783226 -5.74229737 4.06032783 -9 4 C-9.33 3.34 -9.66 2.68 -10 2 C-8.7090864 1.66376204 -7.41723903 1.33110751 -6.125 1 C-5.40570312 0.814375 -4.68640625 0.62875 -3.9453125 0.4375 C-2 0 -2 0 0 0 Z " fill="#31302D" transform="translate(657,697)"/>
<path d="M0 0 C0 0.99 0 1.98 0 3 C-2.95664519 4.4783226 -5.74229737 4.06032783 -9 4 C-9.33 3.34 -9.66 2.68 -10 2 C-8.7090864 1.66376204 -7.41723903 1.33110751 -6.125 1 C-5.40570312 0.814375 -4.68640625 0.62875 -3.9453125 0.4375 C-2 0 -2 0 0 0 Z " fill="#31302D" transform="translate(624,697)"/>
<path d="M0 0 C0 0.99 0 1.98 0 3 C-2.95664519 4.4783226 -5.74229737 4.06032783 -9 4 C-9.33 3.34 -9.66 2.68 -10 2 C-8.7090864 1.66376204 -7.41723903 1.33110751 -6.125 1 C-5.40570313 0.814375 -4.68640625 0.62875 -3.9453125 0.4375 C-2 0 -2 0 0 0 Z " fill="#31302D" transform="translate(513,697)"/>
<path d="M0 0 C0 0.99 0 1.98 0 3 C-2.95664519 4.4783226 -5.74229737 4.06032783 -9 4 C-9.33 3.34 -9.66 2.68 -10 2 C-8.7090864 1.66376204 -7.41723903 1.33110751 -6.125 1 C-5.40570313 0.814375 -4.68640625 0.62875 -3.9453125 0.4375 C-2 0 -2 0 0 0 Z " fill="#31302D" transform="translate(410,697)"/>
<path d="M0 0 C0.66 0.33 1.32 0.66 2 1 C0.5140084 5.59306496 -1.85014682 8.43569245 -5 12 C-5.66 11.67 -6.32 11.34 -7 11 C-4.69 7.37 -2.38 3.74 0 0 Z " fill="#191916" transform="translate(530,595)"/>
<path d="M0 0 C3.21043882 1.38188453 5.04936365 2.92421903 7.25 5.625 C8.03117187 6.57246094 8.03117187 6.57246094 8.828125 7.5390625 C9.40820312 8.26222656 9.40820312 8.26222656 10 9 C7 9 7 9 5.17578125 7.5390625 C4.56089844 6.90742188 3.94601562 6.27578125 3.3125 5.625 C2.68988281 4.99851562 2.06726563 4.37203125 1.42578125 3.7265625 C0 2 0 2 0 0 Z " fill="#252421" transform="translate(496,440)"/>
<path d="M0 0 C0.2475 0.5775 0.495 1.155 0.75 1.75 C2.16683317 4.3002997 3.87627537 6.01785701 6 8 C4.1875 8.6875 4.1875 8.6875 2 9 C0.25 7.875 0.25 7.875 -1 6 C-1.25 3.375 -1.25 3.375 -1 1 C-0.67 0.67 -0.34 0.34 0 0 Z " fill="#121211" transform="translate(348,677)"/>
<path d="M0 0 C0.66 0.33 1.32 0.66 2 1 C0.02 3.97 -1.96 6.94 -4 10 C-4.66 9.67 -5.32 9.34 -6 9 C-4.47291037 5.56404834 -2.40072955 2.88087546 0 0 Z " fill="#1D1D1A" transform="translate(569,588)"/>
<path d="M0 0 C2.18975773 3.28463659 2.99806563 6.20696275 4 10 C3.01 10 2.02 10 1 10 C-0.85064319 6.87703962 -1.29356154 4.62059232 -1 1 C-0.67 0.67 -0.34 0.34 0 0 Z " fill="#1E1F1B" transform="translate(375,549)"/>
<path d="M0 0 C2.56616632 3.84924948 2.55097676 6.4349304 3 11 C2.01 10.67 1.02 10.34 0 10 C-0.19412181 8.52168779 -0.38012131 7.04230684 -0.5625 5.5625 C-0.66691406 4.73878906 -0.77132813 3.91507813 -0.87890625 3.06640625 C-0.91886719 2.38449219 -0.95882813 1.70257812 -1 1 C-0.67 0.67 -0.34 0.34 0 0 Z " fill="#121210" transform="translate(340,536)"/>
<path d="M0 0 C0.99 0.33 1.98 0.66 3 1 C1.02 3.97 -0.96 6.94 -3 10 C-3.66 9.67 -4.32 9.34 -5 9 C-3.7508258 5.54074837 -2.32472205 2.85306797 0 0 Z " fill="#1F1E1C" transform="translate(647,468)"/>
<path d="M0 0 C2.38672669 2.96283313 4.7353371 5.94270509 7 9 C6.01 9 5.02 9 4 9 C1.25 6.1875 1.25 6.1875 -1 3 C-0.67 2.01 -0.34 1.02 0 0 Z " fill="#171714" transform="translate(470,368)"/>
<path d="M0 0 C0.66 0.33 1.32 0.66 2 1 C1.34 3.97 0.68 6.94 0 10 C-0.99 10 -1.98 10 -3 10 C-2.01 6.7 -1.02 3.4 0 0 Z " fill="#21201E" transform="translate(346,468)"/>
<path d="M0 0 C0.66 0.33 1.32 0.66 2 1 C1.67 4.3 1.34 7.6 1 11 C0.34 11 -0.32 11 -1 11 C-1.0270043 9.54176788 -1.04639787 8.08339325 -1.0625 6.625 C-1.07410156 5.81289063 -1.08570313 5.00078125 -1.09765625 4.1640625 C-1 2 -1 2 0 0 Z " fill="#1E1D1B" transform="translate(469,356)"/>
<path d="M0 0 C2.33944736 0.28730055 4.6739143 0.61936779 7 1 C7 1.33 7 1.66 7 2 C5.02 2 3.04 2 1 2 C0.67 3.98 0.34 5.96 0 8 C-0.99 7.01 -1.98 6.02 -3 5 C-1.125 1.125 -1.125 1.125 0 0 Z " fill="#3A3935" transform="translate(350,673)"/>
<path d="M0 0 C5.61 0.33 11.22 0.66 17 1 C17 1.33 17 1.66 17 2 C14.9190156 2.24959784 12.83499188 2.47394907 10.75 2.6875 C9.58984375 2.81511719 8.4296875 2.94273437 7.234375 3.07421875 C4 3 4 3 0 0 Z " fill="#11100F" transform="translate(430,632)"/>
<path d="M0 0 C1 4 1 4 0.00390625 5.703125 C-1.33072917 7.13541667 -2.66536458 8.56770833 -4 10 C-4.66 9.67 -5.32 9.34 -6 9 C-4.02 6.03 -2.04 3.06 0 0 Z " fill="#181815" transform="translate(514,620)"/>
<path d="M0 0 C2.79908133 2.79908133 2.72362983 5.13081763 3 9 C2.34 9.66 1.68 10.32 1 11 C0.63890458 9.35567294 0.28629924 7.7094792 -0.0625 6.0625 C-0.25972656 5.14597656 -0.45695313 4.22945313 -0.66015625 3.28515625 C-0.77230469 2.53105469 -0.88445313 1.77695312 -1 1 C-0.67 0.67 -0.34 0.34 0 0 Z " fill="#1D1D1A" transform="translate(524,482)"/>
<path d="M0 0 C2.64 1.65 5.28 3.3 8 5 C7.34 5.66 6.68 6.32 6 7 C3.69 5.35 1.38 3.7 -1 2 C-0.67 1.34 -0.34 0.68 0 0 Z " fill="#181815" transform="translate(381,611)"/>
<path d="M0 0 C0.66 0 1.32 0 2 0 C0.87548273 2.9719385 -0.22293791 5.33440687 -2 8 C-2.99 7.67 -3.98 7.34 -5 7 C-4.21654285 5.82780457 -3.42297164 4.66236332 -2.625 3.5 C-2.18414063 2.8503125 -1.74328125 2.200625 -1.2890625 1.53125 C-0.65097656 0.77328125 -0.65097656 0.77328125 0 0 Z " fill="#1F1F1B" transform="translate(564,544)"/>
<path d="M0 0 C0.66 0.33 1.32 0.66 2 1 C0.02 5.455 0.02 5.455 -2 10 C-2.66 9.67 -3.32 9.34 -4 9 C-2.25 2.25 -2.25 2.25 0 0 Z " fill="#161614" transform="translate(381,466)"/>
<path d="M0 0 C1 4 1 4 -0.9375 7.25 C-1.618125 8.1575 -2.29875 9.065 -3 10 C-3.66 9.34 -4.32 8.68 -5 8 C-3.35 5.36 -1.7 2.72 0 0 Z " fill="#21211E" transform="translate(621,457)"/>
<path d="M0 0 C5.45454545 0.45454545 5.45454545 0.45454545 8 3 C4.18510326 4.46726798 1.70988378 3.43336419 -2 2 C-1.34 1.34 -0.68 0.68 0 0 Z " fill="#252423" transform="translate(472,427)"/>
<path d="M0 0 C0 0.99 0 1.98 0 3 C-2.90600261 4.25664978 -4.79604584 5 -8 5 C-8 4.34 -8 3.68 -8 3 C-2.25 0 -2.25 0 0 0 Z " fill="#1B1A18" transform="translate(408,407)"/>
<path d="M0 0 C0.66 0.66 1.32 1.32 2 2 C-0.97 4.475 -0.97 4.475 -4 7 C-4.33 6.01 -4.66 5.02 -5 4 C-3.35 2.68 -1.7 1.36 0 0 Z " fill="#0D0D0B" transform="translate(415,347)"/>
<path d="M0 0 C0.66 0 1.32 0 2 0 C0.87548273 2.9719385 -0.22293791 5.33440687 -2 8 C-2.99 7.67 -3.98 7.34 -5 7 C-4.21654285 5.82780457 -3.42297164 4.66236332 -2.625 3.5 C-2.18414062 2.8503125 -1.74328125 2.200625 -1.2890625 1.53125 C-0.65097656 0.77328125 -0.65097656 0.77328125 0 0 Z " fill="#22221E" transform="translate(480,580)"/>
<path d="M0 0 C1 4 1 4 -0.4375 6.75 C-1.2109375 7.86375 -1.2109375 7.86375 -2 9 C-2.99 8.67 -3.98 8.34 -5 8 C-3.35 5.36 -1.7 2.72 0 0 Z " fill="#1B1A17" transform="translate(594,498)"/>
<path d="M0 0 C0.66 0 1.32 0 2 0 C0.50163895 3.11198065 -1.19933758 6.0534615 -3 9 C-3.66 8.34 -4.32 7.68 -5 7 C-4.21654285 5.82780457 -3.42297164 4.66236332 -2.625 3.5 C-2.18414063 2.8503125 -1.74328125 2.200625 -1.2890625 1.53125 C-0.65097656 0.77328125 -0.65097656 0.77328125 0 0 Z " fill="#161512" transform="translate(611,473)"/>
<path d="M0 0 C0.66 0.33 1.32 0.66 2 1 C0.80100302 4.0831351 -0.47700477 7.06279492 -2 10 C-2.66 9.34 -3.32 8.68 -4 8 C-2.68 5.36 -1.36 2.72 0 0 Z " fill="#1A1B17" transform="translate(354,452)"/>
<path d="M0 0 C0.99 0.66 1.98 1.32 3 2 C1.35 4.31 -0.3 6.62 -2 9 C-3 5 -3 5 -1.5625 2.25 C-1.046875 1.5075 -0.53125 0.765 0 0 Z " fill="#171714" transform="translate(683,412)"/>
<path d="M0 0 C0.99 0.33 1.98 0.66 3 1 C1.7260411 3.03833424 0.38938077 5.03852126 -1 7 C-1.66 7 -2.32 7 -3 7 C-1.125 2.25 -1.125 2.25 0 0 Z " fill="#161614" transform="translate(561,598)"/>
<path d="M0 0 C0.66 0 1.32 0 2 0 C0.87548273 2.9719385 -0.22293791 5.33440687 -2 8 C-2.99 7.67 -3.98 7.34 -5 7 C-4.21654285 5.82780457 -3.42297164 4.66236332 -2.625 3.5 C-2.18414062 2.8503125 -1.74328125 2.200625 -1.2890625 1.53125 C-0.65097656 0.77328125 -0.65097656 0.77328125 0 0 Z " fill="#161612" transform="translate(496,556)"/>
<path d="M0 0 C3 2 3 2 3.6875 5.125 C3.8421875 6.548125 3.8421875 6.548125 4 8 C3.01 8.495 3.01 8.495 2 9 C0.14223235 5.86501708 -0.20140476 3.62528568 0 0 Z " fill="#1D1C1A" transform="translate(371,540)"/>
<path d="M0 0 C0.66 0 1.32 0 2 0 C0.8141763 3.37503669 -0.27573689 5.64722731 -3 8 C-3 3.77471908 -2.74375671 2.95481492 0 0 Z " fill="#191917" transform="translate(387,456)"/>
<path d="M0 0 C0.66 0 1.32 0 2 0 C0.8141763 3.37503669 -0.27573689 5.64722731 -3 8 C-3 3.77471908 -2.74375671 2.95481492 0 0 Z " fill="#1D1C1A" transform="translate(667,438)"/>
<path d="M0 0 C0.66 0 1.32 0 2 0 C2 0.66 2 1.32 2 2 C1.34 2 0.68 2 0 2 C-0.2475 2.639375 -0.495 3.27875 -0.75 3.9375 C-2 6 -2 6 -4.078125 6.62890625 C-4.71234375 6.75136719 -5.3465625 6.87382812 -6 7 C-5.04882866 5.8274869 -4.08882991 4.66212985 -3.125 3.5 C-2.59132813 2.8503125 -2.05765625 2.200625 -1.5078125 1.53125 C-0.76144531 0.77328125 -0.76144531 0.77328125 0 0 Z " fill="#141411" transform="translate(370,432)"/>
<path d="M0 0 C2.31 1.98 4.62 3.96 7 6 C6.34 6.66 5.68 7.32 5 8 C2.5 5.6875 2.5 5.6875 0 3 C0 2.01 0 1.02 0 0 Z " fill="#21211D" transform="translate(526,427)"/>
<path d="M0 0 C0.33 0.99 0.66 1.98 1 3 C-0.4375 5.6875 -0.4375 5.6875 -2 8 C-2.99 7.67 -3.98 7.34 -5 7 C-3.35 4.69 -1.7 2.38 0 0 Z " fill="#171714" transform="translate(539,582)"/>
<path d="M0 0 C1.98 0.66 3.96 1.32 6 2 C6 2.99 6 3.98 6 5 C3.69 4.01 1.38 3.02 -1 2 C-0.67 1.34 -0.34 0.68 0 0 Z " fill="#181815" transform="translate(392,619)"/>
<path d="M0 0 C0.33 1.32 0.66 2.64 1 4 C-0.9375 6.25 -0.9375 6.25 -3 8 C-3.66 7.67 -4.32 7.34 -5 7 C-3.35 4.69 -1.7 2.38 0 0 Z " fill="#1C1C19" transform="translate(363,439)"/>
<path d="M0 0 C0.66 0.66 1.32 1.32 2 2 C0.02 4.97 0.02 4.97 -2 8 C-2.6875 6.25 -2.6875 6.25 -3 4 C-1.5625 1.75 -1.5625 1.75 0 0 Z " fill="#1F1F1C" transform="translate(672,430)"/>
<path d="M0 0 C0.66 0 1.32 0 2 0 C2 0.66 2 1.32 2 2 C5.3 2 8.6 2 12 2 C12 2.33 12 2.66 12 3 C8.37 3.33 4.74 3.66 1 4 C0.67 2.68 0.34 1.36 0 0 Z " fill="#141412" transform="translate(551,424)"/>
<path d="M0 0 C3.96 1.98 3.96 1.98 8 4 C7.67 4.66 7.34 5.32 7 6 C4.625 5.25 4.625 5.25 2 4 C1.34 2.68 0.68 1.36 0 0 Z " fill="#1B1B18" transform="translate(505,412)"/>
<path d="M0 0 C1.65 0 3.3 0 5 0 C5.33 0.66 5.66 1.32 6 2 C1.545 2.495 1.545 2.495 -3 3 C-2.01 2.67 -1.02 2.34 0 2 C0 1.34 0 0.68 0 0 Z " fill="#2D2C29" transform="translate(423,378)"/>
<path d="M0 0 C-1.04874998 2.62187494 -1.64931313 3.79371361 -4.125 5.25 C-4.74375 5.4975 -5.3625 5.745 -6 6 C-6.66 5.34 -7.32 4.68 -8 4 C-2.25 0 -2.25 0 0 0 Z " fill="#1E1D1B" transform="translate(499,373)"/>
</svg>
